<?xml version="1.0" encoding="UTF-8"?>
<svg xmlns="http://www.w3.org/2000/svg" viewBox="0 0 1000 700" preserveAspectRatio="xMidYMid meet" id="risk-map">
  <defs>
    <!-- Highlight shadows -->
    <filter id="territoryShadow" x="-10%" y="-10%" width="120%" height="120%">
      <feGaussianBlur in="SourceAlpha" stdDeviation="1"/>
      <feOffset dx="0.5" dy="1" result="offsetblur"/>
      <feComponentTransfer><feFuncA type="linear" slope="0.3"/></feComponentTransfer>
      <feMerge><feMergeNode/><feMergeNode in="SourceGraphic"/></feMerge>
    </filter>
  </defs>

  <!-- Embed the actual board map image as the background -->
  <image href="images/riskmap-1.png" x="0" y="0" width="1000" height="700" preserveAspectRatio="none"/>

  <!-- Interactive SVG paths overlaid on top (styled in CSS with semi-transparency/blend modes) -->
  <!-- Coordinates updated to align perfectly on top of the printed borders in riskmap-1.png -->
  <!-- =================== NORTH AMERICA =================== -->
  <g id="northAmerica" data-continent="northAmerica" stroke="#4a2f0d" stroke-width="1.2" stroke-linejoin="round" filter="url(#territoryShadow)">
    <!-- Alaska -->
    <path id="t-alaska" data-territory="alaska"
      d="M 38,160 L 72,162 L 95,170 L 115,170 L 125,200 L 122,230 L 105,250 L 75,250 L 52,235 L 35,205 Z"/>
    <!-- Northwest Territory -->
    <path id="t-northwest" data-territory="northwest"
      d="M 125,200 L 155,190 L 210,185 L 235,185 L 265,195 L 290,195 L 305,215 L 302,230 L 268,265 L 225,275 L 180,265 L 122,230 Z"/>
    <!-- Greenland -->
    <path id="t-greenland" data-territory="greenland"
      d="M 285,170 L 325,120 L 355,80 L 380,75 L 430,70 L 468,85 L 470,140 L 452,185 L 420,210 L 360,205 L 305,215 Z"/>
    <!-- Alberta -->
    <path id="t-alberta" data-territory="alberta"
      d="M 105,250 L 122,230 L 180,265 L 225,275 L 252,282 L 250,345 L 208,358 L 152,350 L 130,320 Z"/>
    <!-- Ontario -->
    <path id="t-ontario" data-territory="ontario"
      d="M 225,275 L 268,265 L 302,230 L 305,215 L 360,205 L 375,230 L 380,270 L 370,295 L 290,348 L 250,345 L 252,282 Z"/>
    <!-- Quebec -->
    <path id="t-quebec" data-territory="quebec"
      d="M 360,205 L 420,210 L 452,185 L 470,205 L 465,260 L 450,292 L 400,312 L 370,295 L 380,270 L 375,230 Z"/>
    <!-- Western US -->
    <path id="t-western_us" data-territory="western_us"
      d="M 130,320 L 152,350 L 208,358 L 250,345 L 290,348 L 280,432 L 248,458 L 180,450 L 140,430 L 132,390 Z"/>
    <!-- Eastern US -->
    <path id="t-eastern_us" data-territory="eastern_us"
      d="M 290,348 L 370,295 L 400,312 L 392,398 L 368,432 L 332,450 L 280,432 Z"/>
    <!-- Central America -->
    <path id="t-central_america" data-territory="central_america"
      d="M 180,450 L 248,458 L 280,432 L 285,475 L 268,520 L 235,548 L 198,538 L 182,490 Z"/>
  </g>

  <!-- =================== SOUTH AMERICA =================== -->
  <g id="southAmerica" data-continent="southAmerica" stroke="#4a2f0d" stroke-width="1.2" stroke-linejoin="round" filter="url(#territoryShadow)">
    <!-- Venezuela -->
    <path id="t-venezuela" data-territory="venezuela"
      d="M 235,548 L 268,520 L 285,475 L 338,525 L 378,542 L 388,580 L 368,605 L 320,610 L 278,595 L 248,575 Z"/>
    <!-- Brazil -->
    <path id="t-brazil" data-territory="brazil"
      d="M 320,610 L 368,605 L 388,580 L 412,580 L 452,595 L 468,645 L 452,700 L 410,700 L 368,700 L 330,670 Z"/>
    <!-- Peru -->
    <path id="t-peru" data-territory="peru"
      d="M 248,575 L 278,595 L 320,610 L 330,670 L 308,700 L 265,700 L 242,665 L 240,620 Z"/>
    <!-- Argentina -->
    <path id="t-argentina" data-territory="argentina"
      d="M 265,700 L 308,700 L 330,670 L 368,700 L 358,700 L 325,700 L 285,700 L 260,700 Z"/>
  </g>

  <!-- =================== EUROPE =================== -->
  <g id="europe" data-continent="europe" stroke="#4a2f0d" stroke-width="1.2" stroke-linejoin="round" filter="url(#territoryShadow)">
    <!-- Iceland -->
    <path id="t-iceland" data-territory="iceland"
      d="M 480,220 L 518,212 L 538,232 L 528,260 L 498,265 L 478,250 Z"/>
    <!-- Scandinavia -->
    <path id="t-scandinavia" data-territory="scandinavia"
      d="M 545,215 L 590,205 L 620,220 L 625,260 L 598,285 L 562,290 L 542,270 L 538,240 Z"/>
    <!-- Ukraine -->
    <path id="t-ukraine" data-territory="ukraine"
      d="M 620,220 L 680,210 L 730,222 L 748,260 L 740,310 L 700,330 L 650,325 L 625,300 L 625,260 Z"/>
    <!-- Great Britain -->
    <path id="t-great_britain" data-territory="great_britain"
      d="M 495,280 L 528,272 L 548,296 L 542,332 L 518,342 L 495,326 L 485,302 Z"/>
    <!-- Northern Europe -->
    <path id="t-northern_europe" data-territory="northern_europe"
      d="M 542,290 L 562,290 L 598,285 L 625,300 L 622,338 L 595,352 L 555,350 L 542,332 Z"/>
    <!-- Western Europe -->
    <path id="t-western_europe" data-territory="western_europe"
      d="M 505,350 L 555,332 L 555,350 L 595,352 L 570,410 L 540,430 L 505,422 L 488,395 L 492,370 Z"/>
    <!-- Southern Europe -->
    <path id="t-southern_europe" data-territory="southern_europe"
      d="M 595,352 L 622,338 L 650,325 L 665,362 L 668,400 L 645,428 L 598,432 L 570,410 Z"/>
  </g>

  <!-- =================== AFRICA =================== -->
  <g id="africa" data-continent="africa" stroke="#4a2f0d" stroke-width="1.2" stroke-linejoin="round" filter="url(#territoryShadow)">
    <!-- North Africa -->
    <path id="t-north_africa" data-territory="north_africa"
      d="M 470,452 L 565,445 L 620,458 L 628,492 L 595,520 L 532,525 L 475,510 L 460,480 Z"/>
    <!-- Egypt -->
    <path id="t-egypt" data-territory="egypt"
      d="M 620,458 L 678,445 L 698,468 L 698,505 L 670,525 L 628,520 L 628,492 Z"/>
    <!-- East Africa -->
    <path id="t-east_africa" data-territory="east_africa"
      d="M 628,520 L 670,525 L 698,505 L 702,518 L 732,542 L 738,590 L 715,620 L 670,625 L 635,595 L 625,560 Z"/>
    <!-- Congo -->
    <path id="t-congo" data-territory="congo"
      d="M 532,525 L 595,520 L 625,560 L 635,595 L 625,600 L 580,612 L 532,598 L 525,568 Z"/>
    <!-- South Africa -->
    <path id="t-south_africa" data-territory="south_africa"
      d="M 532,598 L 580,612 L 625,600 L 635,595 L 650,632 L 645,685 L 610,700 L 555,700 L 528,670 Z"/>
    <!-- Madagascar -->
    <path id="t-madagascar" data-territory="madagascar"
      d="M 720,625 L 748,620 L 762,648 L 758,688 L 735,700 L 712,688 L 708,655 Z"/>
  </g>

  <!-- =================== ASIA =================== -->
  <g id="asia" data-continent="asia" stroke="#4a2f0d" stroke-width="1.2" stroke-linejoin="round" filter="url(#territoryShadow)">
    <!-- Ural -->
    <path id="t-ural" data-territory="ural"
      d="M 730,220 L 800,218 L 825,240 L 825,285 L 795,308 L 755,308 L 748,258 Z"/>
    <!-- Siberia -->
    <path id="t-siberia" data-territory="siberia"
      d="M 800,218 L 890,188 L 928,208 L 932,252 L 898,280 L 845,285 L 825,240 Z"/>
    <!-- Yakutsk -->
    <path id="t-yakutsk" data-territory="yakutsk"
      d="M 890,188 L 958,175 L 978,200 L 972,240 L 942,258 L 908,250 L 928,208 Z"/>
    <!-- Kamchatka -->
    <path id="t-kamchatka" data-territory="kamchatka"
      d="M 958,175 L 992,195 L 1002,228 L 998,272 L 965,285 L 942,258 Z"/>
    <!-- Irkutsk -->
    <path id="t-irkutsk" data-territory="irkutsk"
      d="M 845,285 L 898,280 L 928,305 L 928,345 L 895,360 L 850,358 L 828,335 Z"/>
    <!-- Afghanistan -->
    <path id="t-afghanistan" data-territory="afghanistan"
      d="M 748,308 L 795,308 L 825,285 L 828,335 L 825,370 L 795,390 L 748,390 L 740,358 Z"/>
    <!-- Middle East -->
    <path id="t-middle_east" data-territory="middle_east"
      d="M 680,408 L 728,398 L 758,420 L 762,462 L 732,485 L 688,480 L 665,455 L 665,425 Z"/>
    <!-- India -->
    <path id="t-india" data-territory="india"
      d="M 758,420 L 820,385 L 848,412 L 845,470 L 810,498 L 768,492 L 762,462 Z"/>
    <!-- Siam -->
    <path id="t-siam" data-territory="siam"
      d="M 848,412 L 898,420 L 922,448 L 918,490 L 882,510 L 845,500 L 845,470 Z"/>
    <!-- China -->
    <path id="t-china" data-territory="china"
      d="M 825,370 L 828,335 L 850,358 L 895,360 L 938,322 L 945,380 L 910,418 L 855,428 L 810,402 L 810,382 Z"/>
    <!-- Mongolia -->
    <path id="t-mongolia" data-territory="mongolia"
      d="M 898,280 L 942,258 L 965,285 L 962,325 L 928,345 L 898,345 L 898,305 Z"/>
    <!-- Japan -->
    <path id="t-japan" data-territory="japan"
      d="M 958,292 L 985,288 L 998,315 L 995,352 L 970,360 L 950,345 Z"/>
  </g>

  <!-- =================== AUSTRALIA =================== -->
  <g id="australia" data-continent="australia" stroke="#4a2f0d" stroke-width="1.2" stroke-linejoin="round" filter="url(#territoryShadow)">
    <!-- Indonesia -->
    <path id="t-indonesia" data-territory="indonesia"
      d="M 845,500 L 895,510 L 928,565 L 895,575 L 858,565 L 842,545 Z"/>
    <!-- New Guinea -->
    <path id="t-new_guinea" data-territory="new_guinea"
      d="M 920,498 L 968,488 L 992,510 L 988,545 L 955,558 L 920,550 Z"/>
    <!-- Western Australia -->
    <path id="t-western_australia" data-territory="western_australia"
      d="M 842,580 L 912,575 L 938,602 L 938,660 L 905,682 L 855,680 L 830,652 Z"/>
    <!-- Eastern Australia -->
    <path id="t-eastern_australia" data-territory="eastern_australia"
      d="M 912,575 L 992,560 L 1010,590 L 1005,660 L 968,680 L 938,660 L 938,602 Z"/>
  </g>

  <!-- Cross-ocean connector hints (dashed) -->
  <g id="connectors" stroke="#4a2f0d" stroke-width="1" stroke-dasharray="4,4" fill="none" opacity="0.3">
    <line x1="92" y1="205" x2="970" y2="210"/>  <!-- Alaska - Kamchatka -->
    <line x1="470" y1="140" x2="498" y2="220"/>  <!-- Greenland - Iceland -->
    <line x1="412" y1="600" x2="495" y2="480"/>  <!-- Brazil - N.Africa -->
    <line x1="540" y1="410" x2="498" y2="452"/>  <!-- W.Europe - N.Africa -->
    <line x1="882" y1="510" x2="885" y2="500"/>  <!-- Siam - Indonesia -->
  </g>
</svg>
